<svg width="22" height="23" viewBox="0 0 22 23" fill="none" xmlns="http://www.w3.org/2000/svg">
<path d="M20.7059 2.18422C22 3.47843 22 4.7725 22 4.7725L9.05862 17.7137L7.1175 17.0667L1.94132 22.243C1.53161 22.6524 1.28591 22.8901 0.767996 22.8901C0.60672 22.8901 0.404118 22.8901 0.201958 22.6881C-0.000200272 22.4857 0 22.2838 0 22.1221C0 21.6042 0.281799 21.3141 0.646612 20.9488L5.82335 15.7726L5.17632 13.8315L18.1175 0.890137C18.1175 0.890137 19.4116 0.890137 20.7058 2.1842L20.7059 2.18422Z" fill="white"/>
<path d="M14.2354 15.7727C14.2354 16.8447 15.1044 17.7138 16.1765 17.7138C17.2486 17.7138 18.1176 16.8447 18.1176 15.7727C18.1176 14.7006 17.2486 13.8315 16.1765 13.8315C15.1044 13.8315 14.2354 14.7006 14.2354 15.7727Z" fill="white"/>
</svg>
