<svg width="22" height="23" viewBox="0 0 22 23" fill="none" xmlns="http://www.w3.org/2000/svg">
<path d="M8.16508 15.1187L3.42352 19.8632C5.46584 21.81 8.17945 22.8942 11.0005 22.8901L11.015 22.8898C11.0949 21.4685 10.8833 20.0459 10.3932 18.7095C9.90311 17.3731 9.14499 16.1511 8.16532 15.1187L8.16508 15.1187Z" fill="white"/>
<path d="M8.16466 14.3344L10.6081 11.89L3.03071 4.30896C1.21717 6.20475 0.146903 8.69075 0.0156555 11.3116C1.50831 11.2319 3.00147 11.4589 4.40311 11.9788C5.80466 12.4987 7.08489 13.3004 8.16474 14.3346L8.16466 14.3344Z" fill="white"/>
<path d="M21.4065 12.4848C18.5859 12.4833 15.8739 11.3956 13.8337 9.44727L11.3926 11.8897L18.9695 19.4708C20.7831 17.575 21.8534 15.089 21.9846 12.4681C21.7918 12.4783 21.599 12.4846 21.4065 12.4846L21.4065 12.4848Z" fill="white"/>
<path d="M13.8354 8.66056L18.577 3.91644C16.5289 1.96518 13.8067 0.881103 10.9789 0.890193C10.8976 2.31216 11.1092 3.73561 11.6004 5.07218C12.0918 6.40891 12.8526 7.63039 13.8354 8.6606L13.8354 8.66056Z" fill="white"/>
<path d="M14.228 9.05252C15.2601 10.0337 16.4821 10.7931 17.8188 11.2837C19.1553 11.7742 20.5782 11.9857 21.9997 11.905L22 11.8896C22.0068 9.0657 20.9208 6.34898 18.9694 4.30859L14.228 9.05252Z" fill="white"/>
<path d="M7.77252 14.7263C6.74202 13.7423 5.5204 12.981 4.18337 12.4895C2.84635 11.998 1.42253 11.7869 0.000526628 11.8693C0.000526628 11.8761 3.1439e-05 11.8829 3.1439e-05 11.8896C-0.0067363 14.7136 1.07938 17.4303 3.0306 19.4707L7.77252 14.7263Z" fill="white"/>
<path d="M18.577 19.8632L11 12.2826L8.55713 14.7268C9.58645 15.8087 10.3847 17.0893 10.9029 18.4902C11.421 19.8912 11.6483 21.3831 11.5709 22.8749C14.1913 22.7428 16.6775 21.6743 18.5769 19.8634L18.577 19.8632Z" fill="white"/>
<path d="M3.4231 3.91665L11 11.4977L13.4431 9.05329C12.4102 7.97353 11.6091 6.69374 11.0895 5.29245C10.5697 3.89128 10.3424 2.3985 10.4213 0.906006C7.80362 1.03945 5.32061 2.10766 3.42331 3.91656L3.4231 3.91665Z" fill="white"/>
</svg>
