<svg width="22" height="23" viewBox="0 0 22 23" fill="none" xmlns="http://www.w3.org/2000/svg">
<path d="M20.7059 2.18422C22 3.47843 22 4.7725 22 4.7725L9.05862 17.7137L7.1175 17.0667L1.94132 22.243C1.53161 22.6524 1.28591 22.8901 0.767996 22.8901C0.60672 22.8901 0.404118 22.8901 0.201958 22.6881C-0.000200272 22.4857 0 22.2838 0 22.1221C0 21.6042 0.281799 21.3141 0.646612 20.9488L5.82335 15.7726L5.17632 13.8315L18.1175 0.890137C18.1175 0.890137 19.4116 0.890137 20.7058 2.1842L20.7059 2.18422Z" fill="white"/>
<path d="M4 7.83125C4 8.90325 4.86903 9.77237 5.94112 9.77237C7.0132 9.77237 7.88223 8.90334 7.88223 7.83125C7.88223 6.75918 7.0132 5.89014 5.94112 5.89014C4.86903 5.89014 4 6.75917 4 7.83125Z" fill="white"/>
<path d="M20.1779 17.0098C20.1175 16.6944 19.9561 16.4107 19.7208 16.2065C19.4854 16.0025 19.1907 15.8908 18.8864 15.8901H18.0713C17.825 15.8897 17.5834 15.9627 17.3743 16.1006C17.1653 16.2386 16.9971 16.4359 16.889 16.6702C16.8277 16.8009 16.7329 16.911 16.6154 16.9878C16.498 17.0646 16.3626 17.1049 16.2245 17.1045H15.7755C15.6358 17.1045 15.4989 17.0628 15.3806 16.9842C15.2623 16.9056 15.1673 16.7932 15.1066 16.6601C14.9978 16.4281 14.8299 16.2331 14.6217 16.0971C14.4135 15.961 14.1734 15.8893 13.9286 15.8902H13.1136C12.8093 15.8908 12.5146 16.0025 12.2793 16.2065C12.044 16.4107 11.8824 16.6944 11.8222 17.0099L11.0256 21.2236C10.9419 21.6663 11.0661 22.1245 11.3591 22.453C11.6519 22.7814 12.0772 22.9392 12.4999 22.8764C12.9225 22.8136 13.2902 22.538 13.4863 22.137L13.9582 21.1724L13.9583 21.1723C14.0206 21.0441 14.1152 20.9368 14.2315 20.8618C14.3479 20.787 14.4815 20.7475 14.6177 20.7478H17.3823C17.5186 20.7476 17.6523 20.7871 17.7686 20.862C17.885 20.9371 17.9796 21.0446 18.042 21.1728L18.5137 22.1372C18.7098 22.5382 19.0774 22.8138 19.5001 22.8766C19.9228 22.9394 20.3481 22.7815 20.641 22.4532C20.9338 22.1248 21.0581 21.6665 20.9744 21.2238L20.1779 17.0098ZM14.565 18.6224H13.9911V19.2295H13.4171V18.6224H12.8432V18.0153L13.4171 18.0152V17.4081H13.9911V18.0152H14.565V18.6224ZM15.713 19.8367L15.139 19.8366V19.2295H15.7129L15.713 19.8367ZM16.861 19.8367L16.2869 19.8366V19.2295H16.8609L16.861 19.8367ZM18.2959 17.408C18.4119 17.408 18.5166 17.4819 18.561 17.5954C18.6054 17.7088 18.5809 17.8394 18.4988 17.9262C18.4167 18.013 18.2933 18.0391 18.186 17.9921C18.0788 17.945 18.0088 17.8344 18.0088 17.7116C18.0088 17.544 18.1373 17.408 18.2959 17.408L18.2959 17.408ZM17.722 18.6224H17.7219C17.6059 18.6224 17.5012 18.5484 17.4567 18.435C17.4123 18.3215 17.4369 18.1909 17.519 18.1041C17.601 18.0173 17.7245 17.9913 17.8317 18.0383C17.939 18.0852 18.0088 18.196 18.0088 18.3187C18.0088 18.3993 17.9786 18.4765 17.9248 18.5334C17.871 18.5904 17.798 18.6224 17.7219 18.6224L17.722 18.6224ZM18.2959 19.2295C18.1798 19.2295 18.0751 19.1555 18.0307 19.0421C17.9863 18.9287 18.0108 18.798 18.0929 18.7112C18.175 18.6244 18.2984 18.5984 18.4057 18.6454C18.5129 18.6924 18.5828 18.8031 18.5828 18.9259C18.5828 19.0064 18.5526 19.0837 18.4988 19.1405C18.4449 19.1975 18.372 19.2295 18.2959 19.2295L18.2959 19.2295ZM18.8698 18.6224C18.7537 18.6224 18.6491 18.5484 18.6047 18.435C18.5602 18.3215 18.5848 18.1909 18.6669 18.1041C18.749 18.0173 18.8724 17.9913 18.9796 18.0383C19.0869 18.0852 19.1568 18.196 19.1568 18.3187C19.1568 18.3993 19.1265 18.4765 19.0727 18.5334C19.0189 18.5904 18.9459 18.6224 18.8698 18.6224L18.8698 18.6224Z" fill="white"/>
</svg>
