<svg width="24" height="18" viewBox="0 0 24 18" fill="none" xmlns="http://www.w3.org/2000/svg">
<path fill-rule="evenodd" clip-rule="evenodd" d="M7.06395 8.15819H5.81812C5.44447 8.15819 5.15375 7.86747 5.15375 7.49382V6.87091H4.53083C4.15718 6.87091 3.86646 6.58018 3.86646 6.20654V4.91925C3.86646 4.58706 4.15719 4.29634 4.53083 4.29634H5.15375V3.67342C5.15375 3.29977 5.44447 3.00905 5.81812 3.00905H7.06395C7.4376 3.00905 7.72832 3.29978 7.72832 3.67342V4.29634H8.35123C8.72488 4.29634 9.0156 4.58706 9.0156 4.91925V6.20654C9.0156 6.58019 8.72487 6.87091 8.35123 6.87091H7.72832V7.49382C7.72832 7.86747 7.43759 8.15819 7.06395 8.15819ZM22.2204 5.4175C20.8085 0.849761 18.6493 -0.188495 13.7491 2.01244C12.6279 2.51072 11.382 2.51072 10.2609 2.01244C5.60997 -0.0638869 3.28494 0.559029 1.78951 5.4175L0.0453706 15.01C-0.369988 17.0863 2.16315 17.7921 3.69971 16.2972L6.60646 13.7641C8.47521 12.1861 15.5344 12.1861 17.3615 13.7641L20.3512 16.3387C21.7214 17.875 24.3377 17.0445 23.9638 15.01L22.2204 5.4175ZM9.8042 10.4835C9.8042 10.2759 9.97029 10.1098 10.1779 10.1098H11.0498C11.2574 10.1098 11.4234 10.2759 11.4234 10.4835C11.4234 10.691 11.2574 10.8571 11.0498 10.8571H10.1779C9.97029 10.8571 9.8042 10.691 9.8042 10.4835ZM12.5449 10.4835C12.5449 10.2759 12.7524 10.1098 12.9603 10.1098H13.7907C14.04 10.1098 14.2061 10.2759 14.2061 10.4835C14.2061 10.691 14.04 10.8571 13.7907 10.8571H12.9603C12.7527 10.8571 12.5449 10.691 12.5449 10.4835ZM19.2721 6.41405C18.8153 6.41405 18.4002 6.0404 18.4002 5.58356C18.4002 5.12674 18.8155 4.71161 19.2721 4.71161C19.7289 4.71161 20.1441 5.12697 20.1441 5.58356C20.1441 6.04038 19.7287 6.41405 19.2721 6.41405ZM15.8671 6.41405C15.3688 6.41405 14.9951 6.0404 14.9951 5.58356C14.9951 5.12674 15.3688 4.71161 15.8671 4.71161C16.3239 4.71161 16.6975 5.12697 16.6975 5.58356C16.6975 6.04038 16.3239 6.41405 15.8671 6.41405ZM17.5697 8.15819C17.0714 8.15819 16.6977 7.74283 16.6977 7.28625C16.6977 6.82943 17.0714 6.4143 17.5697 6.4143C18.0265 6.4143 18.4002 6.82966 18.4002 7.28625C18.4002 7.74306 18.0265 8.15819 17.5697 8.15819ZM17.5697 4.71168C17.0714 4.71168 16.6977 4.33803 16.6977 3.88119C16.6977 3.3829 17.0714 3.00924 17.5697 3.00924C18.0265 3.00924 18.4002 3.38289 18.4002 3.88119C18.4002 4.338 18.0265 4.71168 17.5697 4.71168Z" fill="white"/>
<path fill-rule="evenodd" clip-rule="evenodd" d="M6.02569 7.28568H6.85618V6.66276C6.85618 6.28911 7.1469 5.99839 7.52055 5.99839H8.14346V5.1679H7.52055C7.1469 5.1679 6.85618 4.87717 6.85618 4.50353V3.88062H6.02569V4.50353C6.02569 4.87718 5.73496 5.1679 5.36132 5.1679H4.7384V5.99839H5.36132C5.73497 5.99839 6.02569 6.28912 6.02569 6.66276V7.28568Z" fill="white"/>
</svg>
