<svg width="22" height="23" viewBox="0 0 22 23" fill="none" xmlns="http://www.w3.org/2000/svg">
<path d="M15.9927 2.09058C14.3935 1.27689 12.6888 0.890137 11.0082 0.890137C7.00475 0.890137 3.14352 3.08567 1.20112 6.89924C-1.55627 12.3092 0.594751 18.932 6.00684 21.69C7.60613 22.5051 9.31073 22.8906 10.9905 22.8906C14.9952 22.8906 18.856 20.6963 20.7988 16.8827C23.5568 11.4715 21.4044 4.84876 15.9923 2.09035L15.9927 2.09058ZM20.2904 12.5565C20.2803 12.6989 20.2675 12.8386 20.2508 12.9782L17.7183 15.3176L17.3148 18.7378C16.8522 19.1634 16.3451 19.5434 15.8008 19.871C14.8777 20.4243 13.8699 20.8124 12.8239 21.0233L9.8201 19.338L6.44424 20.0122C5.46125 19.4603 4.59801 18.7485 3.87547 17.8906C3.49686 17.4394 3.16443 16.9586 2.87916 16.4497L3.55181 13.0712L1.86655 10.0646C2.03245 9.23484 2.31239 8.43049 2.70311 7.66379C3.09323 6.89967 3.58203 6.19878 4.15461 5.57708L7.57345 5.17285L9.91125 2.64168C10.2745 2.5987 10.6404 2.57722 11.009 2.57722C11.7274 2.57722 12.4444 2.66178 13.1421 2.82692C13.7431 2.96933 14.3319 3.17329 14.8978 3.43388L16.3373 6.56128L19.4599 8.00084C19.611 8.32849 19.7426 8.66689 19.856 9.01341C20.23 10.1638 20.3763 11.3563 20.2904 12.5566L20.2904 12.5565Z" fill="white"/>
<path d="M9.21824 8.6261L7.21608 12.5565L10.3347 15.6733L14.2643 13.6711L13.574 9.31643L9.21824 8.6261Z" fill="white"/>
</svg>
