<svg width="63" height="40" viewBox="0 0 63 40" fill="none" xmlns="http://www.w3.org/2000/svg">
<path d="M0 0V35.4373H29.4388V37.4061H19.6874L20.6718 39.3748H42.3279L43.3123 37.4061H33.4993V35.4373H63V0H0ZM1.96874 1.96874H61.0309V33.4686H1.96874V1.96874Z" fill="white"/>
<path d="M20.4102 21.7148V24H13.252V21.7148H20.4102ZM14.1992 9.78125V24H11.2695V9.78125H14.1992ZM25.2051 9.78125V24H22.2852V9.78125H25.2051ZM33.0762 21.0312L36.4258 9.78125H39.6875L34.7363 24H32.5879L33.0762 21.0312ZM29.9902 9.78125L33.3301 21.0312L33.8379 24H31.6699L26.748 9.78125H29.9902ZM50.5566 21.7148V24H42.9883V21.7148H50.5566ZM43.9453 9.78125V24H41.0156V9.78125H43.9453ZM49.5703 15.5723V17.7988H42.9883V15.5723H49.5703ZM50.5469 9.78125V12.0762H42.9883V9.78125H50.5469Z" fill="white"/>
</svg>
