<svg width="23" height="23" viewBox="0 0 23 23" fill="none" xmlns="http://www.w3.org/2000/svg">
<path d="M12.2605 18.1709L4.72426 10.6346C4.70154 8.243 5.679 5.73692 7.62301 3.79263C11.1911 0.224492 16.6533 -0.0984299 19.8232 3.0715C22.9931 6.24162 22.6703 11.7037 19.1022 15.272C17.1579 17.2162 14.6517 18.1937 12.2602 18.1708L12.2605 18.1709Z" fill="white"/>
<path d="M11.4259 18.1244C11.4259 18.1244 9.13903 16.5375 7.13026 17.84C5.12149 19.1424 2.33987 22.8953 2.33987 22.8953C2.33987 22.8953 1.81002 22.7628 0.971319 21.9239C0.13246 21.0851 -9.53674e-07 20.5554 -9.53674e-07 20.5554C-9.53674e-07 20.5554 3.75278 17.7739 5.05523 15.765C6.35765 13.7562 4.77081 11.4693 4.77081 11.4693C4.7705 11.4661 4.77035 11.4627 4.77004 11.4594L11.436 18.1253C11.4323 18.1247 11.4289 18.1245 11.4257 18.1242L11.4259 18.1244Z" fill="white"/>
<path d="M11.4287 20.8292C11.4287 21.9669 10.5064 22.8891 9.36867 22.8891C8.23098 22.8891 7.30878 21.9669 7.30878 20.8292C7.30878 19.6915 8.23098 18.7692 9.36867 18.7692C10.5064 18.7692 11.4287 19.6915 11.4287 20.8292Z" fill="white"/>
</svg>
