<svg width="22" height="23" viewBox="0 0 22 23" fill="none" xmlns="http://www.w3.org/2000/svg">
<path d="M10.7041 22.8902C10.757 22.4724 10.7887 22.0493 10.7887 21.6262C10.7887 19.0825 9.79975 16.6392 8.00163 14.841C6.20352 13.0428 3.75497 12.1016 1.21107 12.1016C0.803857 12.1016 0.396632 12.128 0 12.1756C0.148078 18.0088 4.88114 22.7154 10.7042 22.8899L10.7041 22.8902Z" fill="white"/>
<path d="M9.62485 2.26505C9.62485 1.82611 9.65129 1.39771 9.69888 0.96936C4.65915 1.58812 0.618375 5.67614 0.0632935 10.7374C0.444066 10.7004 0.824838 10.6793 1.2162 10.6793C7.2926 10.6793 12.1689 15.5551 12.1689 21.6266C12.1689 22.0339 12.1477 22.4358 12.1001 22.8324C17.209 22.2983 21.3339 18.2738 21.9262 13.1862C21.482 13.2391 21.0325 13.2179 20.5777 13.2179C14.4959 13.2127 9.62496 8.34213 9.62496 2.26525L9.62485 2.26505Z" fill="white"/>
<path d="M13.787 9.05034C15.5851 10.8485 18.0284 11.8374 20.5722 11.8374C21.0535 11.8374 21.5295 11.8004 22.0001 11.7316C21.8838 5.8085 17.0344 0.969434 11.1006 0.890137C11.0371 1.33966 11.0001 1.79973 11.0001 2.26517C11.0001 4.80892 11.9891 7.2522 13.7872 9.05041L13.787 9.05034Z" fill="white"/>
</svg>
