<svg width="22" height="23" viewBox="0 0 22 23" fill="none" xmlns="http://www.w3.org/2000/svg">
<path d="M6.92736 6.58656C9.03811 5.85407 11.0946 5.3929 13.0431 5.23019C14.6938 5.09451 16.2634 5.14882 17.7518 5.42017C18.9153 5.63721 19.8083 5.93564 20.4579 6.20677C20.2955 5.93542 20.1332 5.66427 19.9437 5.42017L19.9167 5.39311C19.8897 5.36605 19.8897 5.3388 19.8625 5.3388C19.8625 5.31174 19.8355 5.31174 19.8355 5.2845C19.8085 5.25744 19.7813 5.20313 19.7543 5.17607C19.159 4.4165 18.4825 3.73831 17.7248 3.14151C17.6978 3.11445 17.6436 3.0872 17.6166 3.06014C17.5896 3.06014 17.5896 3.03308 17.5624 3.03308C17.5354 3.00602 17.5082 3.00602 17.4813 2.97877L17.4543 2.95171C17.1566 2.73467 16.8319 2.54488 16.507 2.35491C16.2094 2.19218 15.9117 2.02944 15.614 1.89377C15.587 1.89377 15.5598 1.86671 15.5329 1.86671C15.5059 1.86671 15.5059 1.83965 15.4787 1.83965C14.4233 1.37851 13.3138 1.08008 12.1502 0.944445H12.0961C11.7442 0.917386 11.3654 0.890137 11.0137 0.890137C10.6619 0.890137 10.283 0.917196 9.93138 0.944445H9.87721C8.74065 1.05287 7.60414 1.35128 6.54876 1.83965H6.52177C6.52177 1.83965 6.49478 1.83965 6.49478 1.86671C6.46779 1.86671 6.4406 1.89377 6.41361 1.89377C6.1971 2.0022 5.98059 2.11081 5.7641 2.21924C5.95362 3.62992 6.2511 4.90491 6.63015 6.01699C6.73793 6.20678 6.8191 6.39657 6.92744 6.58656L6.92736 6.58656Z" fill="white"/>
<path d="M17.5352 6.20676C15.4245 5.82698 11.9336 5.71856 7.33325 7.29176C8.25327 8.81084 9.47097 10.1672 10.9866 11.3338C11.2301 11.1168 11.6631 10.8183 12.2854 10.5472C12.9078 10.2758 13.5843 10.0861 14.342 10.0047C15.262 9.86902 16.2904 9.89627 17.3728 10.0318C17.6975 10.0861 18.0493 10.1402 18.374 10.1945H18.401C19.5105 10.4115 20.7282 10.7913 21.9731 11.2525C21.9731 11.0897 21.9461 10.927 21.9461 10.7643V10.71C21.838 9.5706 21.5403 8.45838 21.0801 7.40041C20.9448 7.31904 20.6743 7.1563 20.2682 6.99357C19.7002 6.77634 18.78 6.45088 17.5353 6.20678L17.5352 6.20676Z" fill="white"/>
<path d="M2.86821 9.05506C3.5989 11.0896 5.24962 14.155 8.90279 17.3832C9.76884 15.8098 10.337 14.0193 10.5805 12.0933C9.417 11.2252 8.44281 10.2488 7.60372 9.16357C7.14371 8.56676 6.73768 7.94288 6.38603 7.29173C6.2237 6.96625 6.06136 6.66784 5.89903 6.34217L5.87204 6.28786C5.4932 5.20286 5.22253 3.98193 5.00599 2.65283C4.87065 2.76126 4.70831 2.84282 4.57298 2.95124L4.54598 2.9783C4.51899 3.00536 4.49181 3.00536 4.46481 3.03261C4.43782 3.03261 4.43782 3.05967 4.41064 3.05967C4.38365 3.08673 4.32947 3.11398 4.30248 3.14104C3.54477 3.73784 2.86825 4.41603 2.27291 5.1756C2.24592 5.20266 2.21873 5.25696 2.19174 5.28402C2.19174 5.31108 2.16475 5.31108 2.16475 5.33833C2.16475 5.36539 2.13776 5.36539 2.13776 5.39264C2.13776 5.55538 2.13776 5.85378 2.19193 6.31492C2.27291 6.8847 2.43525 7.86128 2.86826 9.05489L2.86821 9.05506Z" fill="white"/>
<path d="M8.11802 18.6311C8.25337 18.4684 8.36153 18.2784 8.46988 18.0886C6.79215 16.6238 5.35797 15.0504 4.24842 13.4497C3.30119 12.0933 2.57069 10.6827 2.05654 9.27217C1.6507 8.1599 1.4612 7.21053 1.38001 6.53235C1.24467 6.77645 1.10933 7.02055 1.00117 7.29192C1.00117 7.31898 0.974178 7.34623 0.974178 7.37328C0.974178 7.40034 0.947185 7.40034 0.947185 7.42759C0.487174 8.48556 0.18948 9.59784 0.054175 10.7642V10.8185C0.0271823 11.1712 0 11.551 0 11.9035C0 12.2562 0.0269928 12.636 0.054175 12.9885V13.0428C0.162337 14.1822 0.460011 15.3215 0.947185 16.3524V16.3794C0.947185 16.3794 0.947185 16.4065 0.974178 16.4065C0.974178 16.4336 1.00117 16.4608 1.00117 16.4879C1.13651 16.7863 1.29885 17.1118 1.46118 17.3831C1.6507 17.7085 1.84002 18.0342 2.05652 18.3326L2.08351 18.3597C2.11051 18.3868 2.11051 18.414 2.13769 18.4411C2.13769 18.4681 2.16468 18.4681 2.16468 18.4954C2.19167 18.5224 2.21886 18.5767 2.24585 18.6038C2.84119 19.3634 3.51771 20.0416 4.27542 20.6384C4.30241 20.6654 4.35659 20.6927 4.38358 20.7197C4.41057 20.7197 4.41057 20.7468 4.43775 20.7468C4.46475 20.7738 4.49193 20.7738 4.51892 20.8011L4.54592 20.8282C4.76243 20.9909 5.00593 21.1536 5.24945 21.2893C6.38615 20.3942 7.33338 19.499 8.11805 18.631L8.11802 18.6311Z" fill="white"/>
<path d="M18.293 11.0083C18.0764 10.954 17.8599 10.927 17.6434 10.8999C17.2104 13.0972 16.5881 15.1047 15.7492 16.8951C15.0457 18.4142 14.2067 19.7705 13.2327 20.9099C12.475 21.8322 11.7443 22.4562 11.1761 22.8901C11.4738 22.8901 11.7714 22.8631 12.0961 22.8358H12.1503C13.2868 22.7274 14.4234 22.429 15.4787 21.9406H15.5057C15.5057 21.9406 15.5327 21.9406 15.5327 21.9136C15.5597 21.9136 15.5869 21.8865 15.6139 21.8865C15.9116 21.7508 16.2362 21.5881 16.5069 21.4254C16.8316 21.2354 17.1564 21.0456 17.4541 20.8286L17.4811 20.8015C17.5081 20.7744 17.5353 20.7744 17.5623 20.7472C17.5893 20.7472 17.5893 20.7201 17.6165 20.7201C17.6434 20.6931 17.6976 20.6658 17.7246 20.6388C18.4823 20.042 19.1588 19.3638 19.7542 18.6042C19.7812 18.5771 19.8084 18.5228 19.8354 18.4958C19.8354 18.4687 19.8623 18.4687 19.8623 18.4415C19.8893 18.4144 19.8893 18.3872 19.9165 18.3872L19.9435 18.3601C20.16 18.0617 20.3493 17.7362 20.5389 17.4105C20.7012 17.1121 20.8635 16.8137 20.9989 16.5153C20.9989 16.4883 21.0259 16.461 21.0259 16.434C21.0259 16.4069 21.0529 16.4069 21.0529 16.3797C21.5129 15.3217 21.8106 14.2094 21.9459 13.043V12.9887C21.9729 12.7174 22 12.4462 22 12.1749C20.7014 11.6324 19.4565 11.2526 18.2929 11.0083L18.293 11.0083Z" fill="white"/>
<path d="M12.6643 20.3403C14.0715 18.6584 15.9115 15.6473 16.8588 10.7914C14.8562 10.6014 13.4762 10.9271 12.6915 11.2796C11.9879 11.578 11.5819 11.9035 11.4196 12.0662C11.1489 14.3178 10.4724 16.4067 9.39005 18.2241C9.22772 18.4955 9.06538 18.7666 8.87585 19.0107V19.1191L8.71332 19.2009C7.95562 20.0418 7.06261 20.8827 6.0614 21.6966C6.19674 21.7509 6.30491 21.8323 6.44024 21.8866C6.46724 21.8866 6.49442 21.9137 6.52141 21.9137C6.54841 21.9137 6.54841 21.9407 6.57559 21.9407C7.60395 22.4019 8.7133 22.7003 9.85005 22.8359C9.9854 22.7546 10.2559 22.5918 10.6347 22.3205C11.0947 21.9679 11.8524 21.3168 12.6643 20.3402L12.6643 20.3403Z" fill="white"/>
</svg>
